PathFileType	4	(X/Y/Z)	s04c0302.trc
DataRate	CameraRate	NumFrames	NumMarkers	Units	OrigDataRate	OrigDataStartFrame	OrigNumFrames
200	200	4	50	mm	200	1750	2000
Frame#	Time	racr			lacr			c7			jug			rlel			rdr			llel			ldr			s2			lic			ric			lasi			rasi			rpsi			lpsi			rgt			lgt			rth1			rth2			rth3			rth4			rlfc			rmfc			rsh1			rsh2			rsh3			rsh4			rlmal			rmmal			rcal			rtoe			rmt5			lth1			lth2			lth4			lth3			llfc			lmfc			lsh1			lsh2			lsh3			lsh4			llmal			lmmal			lcal			ltoe			lmt5			SBIKE			LBIKE			RBIKE			
		X1	Y1	Z1	X2	Y2	Z2	X3	Y3	Z3	X4	Y4	Z4	X5	Y5	Z5	X6	Y6	Z6	X7	Y7	Z7	X8	Y8	Z8	X9	Y9	Z9	X10	Y10	Z10	X11	Y11	Z11	X12	Y12	Z12	X13	Y13	Z13	X14	Y14	Z14	X15	Y15	Z15	X16	Y16	Z16	X17	Y17	Z17	X18	Y18	Z18	X19	Y19	Z19	X20	Y20	Z20	X21	Y21	Z21	X22	Y22	Z22	X23	Y23	Z23	X24	Y24	Z24	X25	Y25	Z25	X26	Y26	Z26	X27	Y27	Z27	X28	Y28	Z28	X29	Y29	Z29	X30	Y30	Z30	X31	Y31	Z31	X32	Y32	Z32	X33	Y33	Z33	X34	Y34	Z34	X35	Y35	Z35	X36	Y36	Z36	X37	Y37	Z37	X38	Y38	Z38	X39	Y39	Z39	X40	Y40	Z40	X41	Y41	Z41	X42	Y42	Z42	X43	Y43	Z43	X44	Y44	Z44	X45	Y45	Z45	X46	Y46	Z46	X47	Y47	Z47	X48	Y48	Z48	X49	Y49	Z49	X50	Y50	Z50	
1750	8.7500	635.403309	1387.871972	-107.544864	632.886746	1388.335428	-410.080625	643.810561	1445.704914	-260.251583	600.119183	1303.197703	-264.499765	557.749720	1118.841462	43.890564	698.625376	910.584719	-95.915832	546.868224	1148.480863	-561.584661	692.393746	911.395779	-479.637284	50.845269	1274.870471	-250.359668	199.450833	1270.380122	-412.002609	213.146735	1246.916174	-96.113811	230.524832	1213.697270	-373.819617	244.689509	1187.846786	-141.409597	90.322564	1310.298670	-205.087753	86.100826	1319.719651	-280.726127	153.118669	1190.243952	-83.132759	147.826181	1197.492526	-450.204817	217.553280	1040.060816	-66.418378	258.199660	963.274829	-79.974985	258.700571	877.745844	-86.382246	288.236794	973.752358	-100.990126	280.280894	732.777306	-113.446789	254.038162	720.088205	-225.278468	203.882489	626.915201	-92.216981	178.077185	540.714860	-109.901570	113.011502	484.989466	-119.533100	207.130265	528.276692	-132.725061	42.598412	352.389843	-132.124086	68.379470	353.335784	-214.890514	-25.957421	359.945716	-172.166132	220.863030	186.251064	-162.705691	152.062136	203.275951	-107.712130	202.034715	1131.637575	-466.016988	280.972683	1097.236262	-476.905227	304.034425	1123.756637	-465.731199	333.181675	1026.433034	-490.204244	442.019343	901.417099	-479.462733	483.421371	877.967113	-373.978657	408.909445	784.869023	-500.425526	390.033084	702.981841	-474.961177	331.248992	636.720228	-468.139869	415.683693	695.685400	-446.394589	260.215385	508.989378	-451.743306	256.750236	515.683343	-365.484908	177.828057	494.678896	-407.000322	476.148664	453.495417	-421.564186	400.388003	422.202773	-480.189728	-185.048393	931.751379	-286.446474	-17.215838	79.797616	-485.819150	-17.509159	79.398350	-84.755628	
1751	8.7550	632.830689	1388.095095	-107.108908	630.709828	1388.355887	-410.075102	641.395091	1445.771804	-259.960217	597.740323	1303.392204	-264.268641	556.870319	1118.511858	43.880373	698.540516	910.577658	-95.773177	545.416732	1147.994628	-561.213084	692.259734	911.601587	-479.596499	48.579239	1275.190654	-250.724810	197.488307	1270.117938	-412.010062	210.601919	1247.699754	-96.149519	228.443005	1213.386223	-373.729418	243.214520	1188.716445	-139.885159	88.122377	1310.410604	-205.507398	83.714122	1319.940120	-281.190219	151.081475	1191.202192	-83.042522	145.266408	1197.045915	-450.274489	215.581022	1040.540008	-66.787127	257.182506	964.197551	-80.039381	258.539689	878.662018	-86.753248	287.266060	974.985471	-100.851915	281.539518	733.955756	-113.826299	254.764201	721.379021	-225.507565	204.980876	628.252752	-92.274188	179.294054	542.011715	-109.825653	114.149437	486.258443	-119.332971	208.241691	529.508324	-132.825029	43.691804	353.537925	-131.706282	69.358008	354.446746	-214.594236	-24.746347	361.741332	-171.840860	220.514758	185.973969	-162.796531	151.921927	203.492120	-107.673553	199.362625	1130.802287	-466.068722	278.143064	1096.107302	-477.018619	301.336049	1122.626822	-466.081623	330.115805	1025.066168	-490.016221	438.607795	899.764964	-479.201017	480.254378	876.843172	-373.617034	405.967888	783.232008	-499.695655	387.493582	701.297949	-474.473026	329.135028	634.669503	-467.611593	413.361686	693.874267	-445.722874	258.844379	506.740382	-451.385828	255.535362	513.187380	-364.978400	176.849429	491.264754	-406.598373	475.622603	454.287967	-421.572685	400.273488	421.975484	-480.184727	-185.038032	931.746546	-286.406289	-17.195319	79.811299	-485.818323	-17.497069	79.405923	-84.748508	
1752	8.7600	630.212892	1388.318731	-106.926386	628.450818	1388.307765	-409.913041	638.921547	1445.879600	-259.686213	595.368843	1303.562763	-263.938518	555.905928	1118.171578	43.738386	698.434698	910.581297	-95.651834	543.943310	1147.504267	-561.012950	692.076749	911.832728	-479.564497	46.280955	1275.547658	-251.147962	195.596557	1269.831180	-411.983803	207.961794	1248.421107	-96.192128	226.421058	1213.132802	-373.611109	241.578113	1189.423959	-138.545673	86.037335	1310.805279	-206.134710	81.383358	1320.309898	-281.771584	148.941464	1192.072647	-83.035551	142.844068	1196.563811	-450.487722	213.551329	1040.887647	-67.070952	256.040893	964.968085	-80.137685	258.380493	879.485478	-87.097006	286.120800	976.142527	-100.782635	282.783347	735.193619	-114.130955	255.806764	722.504423	-225.737319	206.434151	629.413705	-92.301291	180.454133	543.242867	-109.788310	115.361004	487.354057	-119.036511	209.411492	530.733506	-132.768590	44.896244	354.730044	-131.240595	70.484930	355.561898	-214.233509	-23.534577	363.657725	-171.507348	220.160213	185.640613	-162.878310	151.784910	203.743536	-107.632779	196.718917	1129.922982	-466.098509	275.348456	1094.874732	-477.029709	298.631696	1121.412136	-466.470885	327.021510	1023.560983	-489.747093	435.356305	898.236617	-478.724515	477.072473	875.578962	-373.233396	402.889319	781.724701	-499.001599	384.914431	699.577896	-474.000650	326.939458	632.574500	-467.080764	410.860782	692.243127	-445.370126	257.436490	504.498598	-451.070834	254.327119	510.725679	-364.597856	175.912914	487.692841	-406.189206	475.076081	455.001117	-421.696885	400.179220	421.640672	-480.166732	-185.029080	931.765613	-286.390841	-17.185919	79.820897	-485.798364	-17.495669	79.412499	-84.742821	
1753	8.7650	627.758311	1388.436058	-106.496670	626.250816	1388.229446	-409.900168	636.432939	1446.064533	-259.431238	592.981357	1303.708069	-263.661962	554.965405	1117.849858	43.587735	698.335668	910.615405	-95.561443	542.557917	1147.031273	-560.801184	691.890712	911.940427	-479.580306	44.038816	1275.816775	-251.798693	193.709294	1269.508682	-411.955549	205.264024	1248.967319	-96.196058	224.314295	1212.823469	-373.392870	239.832884	1189.962599	-137.337599	84.048680	1310.855429	-207.056867	78.766288	1320.854763	-282.577892	146.552361	1192.703431	-83.150530	140.563864	1196.077430	-450.719552	211.546839	1041.262701	-67.039615	254.917986	965.569170	-80.496906	258.177822	880.247853	-87.440001	285.026004	977.326776	-100.437435	284.072180	736.212465	-114.451063	257.163131	723.366542	-225.988124	207.636952	630.646945	-92.263013	181.666838	544.392090	-109.684049	116.639375	488.581359	-118.758031	210.578222	531.921124	-132.709663	46.095434	356.033221	-130.729042	71.748164	356.534232	-213.840602	-22.419366	365.663250	-171.151789	219.791550	185.415121	-162.865651	151.546817	204.131266	-107.605119	194.105450	1128.960121	-466.160103	272.599300	1093.529465	-477.051841	295.960373	1120.066726	-466.840901	323.956199	1021.986551	-489.462171	432.140603	896.600497	-478.132883	473.848382	874.421513	-372.643836	399.690729	780.241161	-498.278445	382.318749	697.869467	-473.544397	324.717217	630.582052	-466.658181	408.484944	690.536490	-445.012530	256.229796	502.140157	-450.775505	253.186163	508.051409	-364.197925	174.765329	484.453900	-406.320526	474.626120	455.524894	-421.753564	400.165938	421.191252	-480.199982	-185.019542	931.770602	-286.392015	-17.186649	79.852883	-485.807228	-17.500974	79.411070	-84.739614	
